<?xml version="1.0" encoding="UTF-8" standalone="no"?>
<svg
   xmlns:dc="http://purl.org/dc/elements/1.1/"
   xmlns:cc="http://creativecommons.org/ns#"
   xmlns:rdf="http://www.w3.org/1999/02/22-rdf-syntax-ns#"
   xmlns:svg="http://www.w3.org/2000/svg"
   xmlns="http://www.w3.org/2000/svg"
   xmlns:sodipodi="http://sodipodi.sourceforge.net/DTD/sodipodi-0.dtd"
   xmlns:inkscape="http://www.inkscape.org/namespaces/inkscape"
   width="745"
   height="214"
   viewBox="0 0 745 214"
   fill="none"
   version="1.1"
   id="svg8"
   sodipodi:docname="powered_by_veertly.svg"
   inkscape:version="1.0.1 (0767f8302a, 2020-10-17)">
  <metadata
     id="metadata14">
    <rdf:RDF>
      <cc:Work
         rdf:about="">
        <dc:format>image/svg+xml</dc:format>
        <dc:type
           rdf:resource="http://purl.org/dc/dcmitype/StillImage" />
      </cc:Work>
    </rdf:RDF>
  </metadata>
  <defs
     id="defs12" />
  <sodipodi:namedview
     pagecolor="#ffffff"
     bordercolor="#666666"
     borderopacity="1"
     objecttolerance="10"
     gridtolerance="10"
     guidetolerance="10"
     inkscape:pageopacity="0"
     inkscape:pageshadow="2"
     inkscape:window-width="1299"
     inkscape:window-height="713"
     id="namedview10"
     showgrid="false"
     inkscape:zoom="0.55601803"
     inkscape:cx="346.86773"
     inkscape:cy="189.15329"
     inkscape:window-x="67"
     inkscape:window-y="27"
     inkscape:window-maximized="1"
     inkscape:current-layer="svg8" />
  <path
     d="M29.664 27.752C32 27.752 34.112 28.296 36 29.384C37.888 30.472 39.36 31.976 40.416 33.896C41.504 35.816 42.048 38.008 42.048 40.472C42.048 42.936 41.504 45.144 40.416 47.096C39.36 49.016 37.888 50.52 36 51.608C34.112 52.664 32 53.192 29.664 53.192C27.456 53.192 25.456 52.68 23.664 51.656C21.872 50.6 20.48 49.144 19.488 47.288V62.312H17.088V27.944H19.392V33.848C20.384 31.928 21.776 30.44 23.568 29.384C25.392 28.296 27.424 27.752 29.664 27.752ZM29.52 51.032C31.44 51.032 33.168 50.584 34.704 49.688C36.24 48.792 37.44 47.544 38.304 45.944C39.2 44.344 39.648 42.52 39.648 40.472C39.648 38.424 39.2 36.6 38.304 35C37.44 33.4 36.24 32.152 34.704 31.256C33.168 30.36 31.44 29.912 29.52 29.912C27.6 29.912 25.872 30.36 24.336 31.256C22.832 32.152 21.632 33.4 20.736 35C19.872 36.6 19.44 38.424 19.44 40.472C19.44 42.52 19.872 44.344 20.736 45.944C21.632 47.544 22.832 48.792 24.336 49.688C25.872 50.584 27.6 51.032 29.52 51.032ZM64.0706 53.192C61.7026 53.192 59.5586 52.648 57.6386 51.56C55.7506 50.472 54.2626 48.968 53.1746 47.048C52.0866 45.096 51.5426 42.904 51.5426 40.472C51.5426 38.04 52.0866 35.864 53.1746 33.944C54.2626 31.992 55.7506 30.472 57.6386 29.384C59.5586 28.296 61.7026 27.752 64.0706 27.752C66.4386 27.752 68.5666 28.296 70.4546 29.384C72.3746 30.472 73.8786 31.992 74.9666 33.944C76.0546 35.864 76.5986 38.04 76.5986 40.472C76.5986 42.904 76.0546 45.096 74.9666 47.048C73.8786 48.968 72.3746 50.472 70.4546 51.56C68.5666 52.648 66.4386 53.192 64.0706 53.192ZM64.0706 51.032C65.9906 51.032 67.7026 50.584 69.2066 49.688C70.7426 48.792 71.9426 47.544 72.8066 45.944C73.7026 44.344 74.1506 42.52 74.1506 40.472C74.1506 38.424 73.7026 36.6 72.8066 35C71.9426 33.4 70.7426 32.152 69.2066 31.256C67.7026 30.36 65.9906 29.912 64.0706 29.912C62.1506 29.912 60.4226 30.36 58.8866 31.256C57.3826 32.152 56.1826 33.4 55.2866 35C54.4226 36.6 53.9906 38.424 53.9906 40.472C53.9906 42.52 54.4226 44.344 55.2866 45.944C56.1826 47.544 57.3826 48.792 58.8866 49.688C60.4226 50.584 62.1506 51.032 64.0706 51.032ZM123.949 27.944L114.445 53H112.189L103.741 31.256L95.2451 53H93.0371L83.5331 27.944H85.8371L94.1891 50.312L102.733 27.944H104.797L113.293 50.264L121.741 27.944H123.949ZM154.797 41.048H133.245C133.309 43 133.805 44.744 134.733 46.28C135.661 47.784 136.909 48.952 138.477 49.784C140.077 50.616 141.869 51.032 143.853 51.032C145.485 51.032 146.989 50.744 148.365 50.168C149.773 49.56 150.941 48.68 151.869 47.528L153.261 49.112C152.173 50.424 150.797 51.432 149.133 52.136C147.501 52.84 145.725 53.192 143.805 53.192C141.309 53.192 139.085 52.648 137.133 51.56C135.181 50.472 133.645 48.968 132.525 47.048C131.437 45.128 130.893 42.936 130.893 40.472C130.893 38.04 131.405 35.864 132.429 33.944C133.485 31.992 134.925 30.472 136.749 29.384C138.573 28.296 140.621 27.752 142.893 27.752C145.165 27.752 147.197 28.296 148.989 29.384C150.813 30.44 152.237 31.928 153.261 33.848C154.317 35.768 154.845 37.944 154.845 40.376L154.797 41.048ZM142.893 29.864C141.133 29.864 139.549 30.264 138.141 31.064C136.733 31.832 135.597 32.936 134.733 34.376C133.901 35.784 133.421 37.384 133.293 39.176H152.493C152.397 37.384 151.917 35.784 151.053 34.376C150.189 32.968 149.053 31.864 147.645 31.064C146.237 30.264 144.653 29.864 142.893 29.864ZM169.373 33.416C170.141 31.592 171.341 30.2 172.973 29.24C174.605 28.248 176.589 27.752 178.925 27.752V30.104L178.349 30.056C175.565 30.056 173.389 30.936 171.821 32.696C170.253 34.424 169.469 36.84 169.469 39.944V53H167.069V27.944H169.373V33.416ZM211.272 41.048H189.72C189.784 43 190.28 44.744 191.208 46.28C192.136 47.784 193.384 48.952 194.952 49.784C196.552 50.616 198.344 51.032 200.328 51.032C201.96 51.032 203.464 50.744 204.84 50.168C206.248 49.56 207.416 48.68 208.344 47.528L209.736 49.112C208.648 50.424 207.272 51.432 205.608 52.136C203.976 52.84 202.2 53.192 200.28 53.192C197.784 53.192 195.56 52.648 193.608 51.56C191.656 50.472 190.12 48.968 189 47.048C187.912 45.128 187.368 42.936 187.368 40.472C187.368 38.04 187.88 35.864 188.904 33.944C189.96 31.992 191.4 30.472 193.224 29.384C195.048 28.296 197.096 27.752 199.368 27.752C201.64 27.752 203.672 28.296 205.464 29.384C207.288 30.44 208.712 31.928 209.736 33.848C210.792 35.768 211.32 37.944 211.32 40.376L211.272 41.048ZM199.368 29.864C197.608 29.864 196.024 30.264 194.616 31.064C193.208 31.832 192.072 32.936 191.208 34.376C190.376 35.784 189.896 37.384 189.768 39.176H208.968C208.872 37.384 208.392 35.784 207.528 34.376C206.664 32.968 205.528 31.864 204.12 31.064C202.712 30.264 201.128 29.864 199.368 29.864ZM245.816 17.384V53H243.464V47.096C242.472 49.048 241.08 50.552 239.288 51.608C237.496 52.664 235.464 53.192 233.192 53.192C230.856 53.192 228.744 52.648 226.856 51.56C224.968 50.472 223.48 48.968 222.392 47.048C221.336 45.128 220.808 42.936 220.808 40.472C220.808 38.008 221.336 35.816 222.392 33.896C223.48 31.944 224.968 30.44 226.856 29.384C228.744 28.296 230.856 27.752 233.192 27.752C235.432 27.752 237.432 28.28 239.192 29.336C240.984 30.392 242.392 31.864 243.416 33.752V17.384H245.816ZM233.336 51.032C235.256 51.032 236.968 50.584 238.472 49.688C240.008 48.792 241.208 47.544 242.072 45.944C242.968 44.344 243.416 42.52 243.416 40.472C243.416 38.424 242.968 36.6 242.072 35C241.208 33.4 240.008 32.152 238.472 31.256C236.968 30.36 235.256 29.912 233.336 29.912C231.416 29.912 229.688 30.36 228.152 31.256C226.648 32.152 225.448 33.4 224.552 35C223.688 36.6 223.256 38.424 223.256 40.472C223.256 42.52 223.688 44.344 224.552 45.944C225.448 47.544 226.648 48.792 228.152 49.688C229.688 50.584 231.416 51.032 233.336 51.032ZM290.439 27.752C292.775 27.752 294.887 28.296 296.775 29.384C298.663 30.44 300.135 31.944 301.191 33.896C302.279 35.816 302.823 38.008 302.823 40.472C302.823 42.936 302.279 45.128 301.191 47.048C300.135 48.968 298.663 50.472 296.775 51.56C294.887 52.648 292.775 53.192 290.439 53.192C288.199 53.192 286.167 52.664 284.343 51.608C282.551 50.52 281.159 49.016 280.167 47.096V53H277.863V17.384H280.263V33.656C281.255 31.8 282.647 30.36 284.439 29.336C286.231 28.28 288.231 27.752 290.439 27.752ZM290.295 51.032C292.215 51.032 293.943 50.584 295.479 49.688C297.015 48.792 298.215 47.544 299.079 45.944C299.975 44.344 300.423 42.52 300.423 40.472C300.423 38.424 299.975 36.6 299.079 35C298.215 33.4 297.015 32.152 295.479 31.256C293.943 30.36 292.215 29.912 290.295 29.912C288.375 29.912 286.647 30.36 285.111 31.256C283.607 32.152 282.407 33.4 281.511 35C280.647 36.6 280.215 38.424 280.215 40.472C280.215 42.52 280.647 44.344 281.511 45.944C282.407 47.544 283.607 48.792 285.111 49.688C286.647 50.584 288.375 51.032 290.295 51.032ZM334.463 27.944L321.599 56.408C320.639 58.616 319.519 60.184 318.239 61.112C316.991 62.04 315.503 62.504 313.775 62.504C312.623 62.504 311.535 62.312 310.511 61.928C309.519 61.544 308.671 60.984 307.967 60.248L309.167 58.424C310.447 59.736 311.999 60.392 313.823 60.392C315.039 60.392 316.079 60.056 316.943 59.384C317.807 58.712 318.607 57.56 319.343 55.928L320.687 52.904L309.407 27.944H311.951L321.983 50.36L332.015 27.944H334.463Z"
     fill="#6A6D6B"
     id="path6" />
  <text
     xml:space="preserve"
     style="font-style:normal;font-weight:normal;font-size:139.833px;line-height:1.25;font-family:sans-serif;letter-spacing:20.101px;fill:#000000;fill-opacity:1;stroke:none;stroke-width:3.49584"
     x="30.578461"
     y="184.05266"
     id="text851"><tspan
       sodipodi:role="line"
       id="tspan849"
       x="30.578461"
       y="184.05266"
       style="font-style:normal;font-variant:normal;font-weight:normal;font-stretch:normal;font-family:Vemana2000;-inkscape-font-specification:Vemana2000;stroke-width:3.49584"><tspan
         style="fill:#00ffe4;fill-opacity:1;stroke-width:3.49584"
         id="tspan853">H</tspan><tspan
         style="fill:#7a9292;fill-opacity:1;stroke-width:3.49584"
         id="tspan965">ADATH</tspan></tspan></text>
</svg>
